HIERARCHY
ROOT Hips
{
	OFFSET -0.001795 -0.223333 0.028219
	CHANNELS 6 Xposition Yposition Zposition Zrotation Yrotation Xrotation 
	JOINT LeftUpLeg
	{
		OFFSET 0.069520 -0.091406 -0.006815
		CHANNELS 3 Zrotation Yrotation Xrotation
		JOINT LeftLeg
		{
			OFFSET 0.034277 -0.375199 -0.004496
			CHANNELS 3 Zrotation Yrotation Xrotation
			JOINT LeftFoot
			{
				OFFSET -0.013596 -0.397961 -0.043693
				CHANNELS 3 Zrotation Yrotation Xrotation
				JOINT LeftToe
				{
					OFFSET 0.026358 -0.055791 0.119288
					CHANNELS 3 Zrotation Yrotation Xrotation
					End Site
					{
						OFFSET 0.000000 0.000000 0.000000
					}
				}
			}
		}
	}
	JOINT RightUpLeg
	{
		OFFSET -0.067670 -0.090522 -0.004320
		CHANNELS 3 Zrotation Yrotation Xrotation
		JOINT RightLeg
		{
			OFFSET -0.038290 -0.382569 -0.008850
			CHANNELS 3 Zrotation Yrotation Xrotation
			JOINT RightFoot
			{
				OFFSET 0.015774 -0.398415 -0.042312
				CHANNELS 3 Zrotation Yrotation Xrotation
				JOINT RightToe
				{
					OFFSET -0.025372 -0.048144 0.123348
					CHANNELS 3 Zrotation Yrotation Xrotation
					End Site
					{
						OFFSET 0.000000 0.000000 0.000000
					}
				}
			}
		}
	}
	JOINT Spine
	{
		OFFSET -0.002533 0.108963 -0.026696
		CHANNELS 3 Zrotation Yrotation Xrotation
		JOINT Spine1
		{
			OFFSET 0.005487 0.135180 0.001092
			CHANNELS 3 Zrotation Yrotation Xrotation
			JOINT Spine2
			{
				OFFSET 0.001457 0.052922 0.025425
				CHANNELS 3 Zrotation Yrotation Xrotation
				JOINT Neck
				{
					OFFSET -0.002778 0.213870 -0.042857
					CHANNELS 3 Zrotation Yrotation Xrotation
					JOINT Head
					{
						OFFSET 0.005152 0.064970 0.051349
						CHANNELS 3 Zrotation Yrotation Xrotation
						End Site
						{
							OFFSET 0.000000 0.000000 0.000000
						}
					}
				}
				JOINT LeftShoulder
				{
					OFFSET 0.078845 0.121749 -0.034090
					CHANNELS 3 Zrotation Yrotation Xrotation
					JOINT LeftArm
					{
						OFFSET 0.090977 0.030469 -0.008868
						CHANNELS 3 Zrotation Yrotation Xrotation
						JOINT LeftForeArm
						{
							OFFSET 0.259612 -0.012772 -0.027456
							CHANNELS 3 Zrotation Yrotation Xrotation
							JOINT LeftHand
							{
								OFFSET 0.249234 0.008986 -0.001171
								CHANNELS 3 Zrotation Yrotation Xrotation
								End Site
								{
									OFFSET 0.000000 0.000000 0.000000
								}
							}
						}
					}
				}
				JOINT RightShoulder
				{
					OFFSET -0.081759 0.118833 -0.038615
					CHANNELS 3 Zrotation Yrotation Xrotation
					JOINT RightArm
					{
						OFFSET -0.096012 0.032551 -0.009143
						CHANNELS 3 Zrotation Yrotation Xrotation
						JOINT RightForeArm
						{
							OFFSET -0.253742 -0.013329 -0.021401
							CHANNELS 3 Zrotation Yrotation Xrotation
							JOINT RightHand
							{
								OFFSET -0.255298 0.007772 -0.005559
								CHANNELS 3 Zrotation Yrotation Xrotation
								End Site
								{
									OFFSET 0.000000 0.000000 0.000000
								}
							}
						}
					}
				}
			}
		}
	}
}
MOTION
Frames: 12
Frame Time: 0.050000
0.000000 0.943953 0.000000 -0.589605 3.662096 -0.655429 0.409950 -0.085177 -0.916697 -0.816911 0.170317 -3.229972 -1.645869 0.438895 7.452626 0.000000 0.000000 0.000000 -0.300957 0.396401 -3.980136 -1.348192 0.191909 0.780112 1.479788 0.424546 6.890601 0.000000 0.000000 0.000000 2.951788 -0.247939 3.429741 -0.859669 0.483930 -2.327487 -3.257344 4.104645 7.757493 8.803458 -3.585375 -16.332051 0.000000 0.000000 0.000000 -18.677139 -14.763401 4.299890 -52.977581 -7.734605 -2.815862 -8.655895 -19.328054 1.999849 0.000000 0.000000 0.000000 18.086064 7.724510 4.259498 59.752692 11.335997 -0.557341 3.858947 19.815963 1.435503 0.000000 0.000000 0.000000 
0.000889 0.942925 0.000455 -0.600556 3.008728 -0.466284 0.408521 -0.055080 -0.565428 -0.770268 0.182946 -3.811260 -1.523425 0.115234 6.399267 0.000000 0.000000 0.000000 -0.405627 0.398325 -4.020508 -1.202514 0.203072 1.397387 2.097571 1.727825 6.861799 0.000000 0.000000 0.000000 3.263106 -0.268252 3.527502 -1.303292 0.692220 -2.849830 -3.379677 5.216742 8.135977 9.845717 -3.887284 -17.711422 0.000000 0.000000 0.000000 -18.623178 -15.238902 4.344127 -52.992265 -7.734725 -2.798145 -8.750660 -18.750586 1.936643 0.000000 0.000000 0.000000 17.853349 8.170865 4.689511 60.606289 11.731235 -0.330335 4.541486 19.493190 1.522060 0.000000 0.000000 0.000000 
0.001522 0.943299 0.000699 -0.331505 2.950284 -0.569789 0.314784 -0.092410 -1.008504 -0.660075 0.132951 -2.251860 -1.330970 0.339961 6.124107 0.000000 0.000000 0.000000 -0.489843 0.369555 -3.740742 -1.293164 0.236968 1.860153 2.674282 2.995236 6.849384 0.000000 0.000000 0.000000 3.194964 -0.260050 3.469809 -1.495209 0.802779 -4.151351 -3.586726 5.568672 9.389744 9.317290 -3.597952 -17.508782 0.000000 0.000000 0.000000 -17.279475 -15.497122 4.479861 -53.871095 -8.283361 -2.801599 -9.306483 -16.641756 1.802289 0.000000 0.000000 0.000000 18.070399 8.900557 5.237299 60.096423 11.814863 -0.465877 5.648837 19.326879 1.673341 0.000000 0.000000 0.000000 
0.002150 0.942985 0.000947 -0.224011 2.723222 -0.375861 0.354882 -0.159805 -1.779463 -0.704664 0.135253 -2.190006 -1.560222 -0.012604 6.325843 0.000000 0.000000 0.000000 -0.267428 0.425433 -4.275566 -1.528864 0.291006 2.337000 3.106450 3.856490 6.983324 0.000000 0.000000 0.000000 3.099056 -0.207884 2.738783 -1.508362 0.789211 -3.280202 -3.660871 5.988506 9.009307 10.290816 -4.136403 -17.613327 0.000000 0.000000 0.000000 -16.891945 -16.299259 4.802916 -54.137908 -7.754324 -3.009667 -9.968008 -17.373216 1.968853 0.000000 0.000000 0.000000 17.227269 9.388541 5.468658 60.506831 11.526253 -0.482415 6.165934 20.157128 1.842963 0.000000 0.000000 0.000000 
0.002459 0.943700 0.000460 -0.280355 2.231850 -0.600297 -0.143554 -0.199082 -2.198704 0.276055 0.013858 -1.160647 -1.152714 0.442102 5.733775 0.000000 0.000000 0.000000 -0.005646 0.425244 -4.225015 -1.255533 0.279694 2.849541 2.943353 3.344663 7.178790 0.000000 0.000000 0.000000 3.300253 -0.196955 2.531854 -1.532156 0.798154 -3.407037 -3.755189 6.379399 9.789793 10.888465 -4.460086 -17.922632 0.000000 0.000000 0.000000 -16.316844 -17.103008 5.221461 -53.888608 -8.070341 -2.949920 -11.044727 -17.829751 2.185450 0.000000 0.000000 0.000000 16.606632 9.421651 5.451477 60.158444 11.614139 -0.489491 7.346200 21.571294 2.219704 0.000000 0.000000 0.000000 
0.002350 0.944028 -0.001714 -0.306747 1.488570 -0.745055 -0.080862 -0.200991 -2.212284 0.795141 -0.045636 -0.955156 -1.210254 0.345949 5.879473 0.000000 0.000000 0.000000 0.197104 0.510203 -5.032608 -1.413782 0.359410 4.001645 3.451026 4.540876 6.889631 0.000000 0.000000 0.000000 3.372542 -0.205840 2.657850 -1.725846 0.875640 -3.301412 -3.758796 6.716351 10.616938 11.593564 -4.789012 -18.613840 0.000000 0.000000 0.000000 -15.591578 -18.305778 5.885134 -54.250359 -9.305055 -2.539875 -10.984820 -19.209195 2.356305 0.000000 0.000000 0.000000 16.374228 10.040489 5.749246 60.294484 13.110056 0.234367 7.691430 22.892396 2.460482 0.000000 0.000000 0.000000 
0.002247 0.944023 -0.006927 -0.452574 0.204903 -0.513213 0.357342 -0.260154 -2.909705 0.748113 -0.065731 -0.397944 -0.534206 1.550724 5.949447 0.000000 0.000000 0.000000 0.540981 0.686311 -6.651800 -1.626109 0.460200 5.292475 3.770133 5.003297 7.088726 0.000000 0.000000 0.000000 3.375617 -0.262606 3.430969 -1.967690 0.968886 -3.189039 -3.838604 6.891172 10.772416 12.158880 -5.064482 -19.244785 0.000000 0.000000 0.000000 -14.885154 -18.841139 6.287505 -54.154813 -10.366528 -2.123892 -10.338739 -21.962273 2.588312 0.000000 0.000000 0.000000 16.140232 10.746509 5.979807 59.979847 14.267005 0.804256 7.958564 25.720906 2.899204 0.000000 0.000000 0.000000 
0.002347 0.943759 -0.015667 -0.679000 -2.388516 -0.225788 1.245112 -0.335124 -4.032722 0.949955 -0.144032 0.859302 0.791832 3.817382 5.864243 0.000000 0.000000 0.000000 0.854887 0.927088 -8.779514 -1.559944 0.586504 7.558793 4.030722 6.124572 5.846277 0.000000 0.000000 0.000000 3.355366 -0.342271 4.580566 -2.229256 1.059969 -3.170511 -3.548686 6.562163 11.266033 12.622927 -5.190808 -20.974240 0.000000 0.000000 0.000000 -14.238016 -19.789027 7.199328 -53.975390 -13.300869 -0.936016 -9.668519 -25.342819 2.934119 0.000000 0.000000 0.000000 15.920047 12.469922 6.446474 59.025077 17.373865 2.289736 9.347817 28.851289 3.617835 0.000000 0.000000 0.000000 
0.002508 0.942995 -0.026161 -1.003392 -6.099586 -0.034932 2.596529 -0.343112 -4.979612 0.293064 -0.095518 1.836414 2.286603 6.565418 6.737713 0.000000 0.000000 0.000000 1.052523 1.273984 -11.642743 -1.694835 0.833396 10.521179 5.220380 8.226613 6.295764 0.000000 0.000000 0.000000 3.217416 -0.443837 6.342396 -2.060228 0.956264 -2.502084 -3.472659 6.422160 10.408259 13.462770 -5.854517 -21.165991 0.000000 0.000000 0.000000 -13.738960 -20.536069 8.015022 -53.379193 -16.148196 0.355821 -8.549833 -29.206982 3.214258 0.000000 0.000000 0.000000 15.112853 14.576397 6.911992 58.047389 20.560832 3.950691 11.435516 32.890316 4.688820 0.000000 0.000000 0.000000 
0.001875 0.942228 -0.035783 -1.277859 -9.813952 -0.253302 3.727296 -0.281730 -5.445357 -0.639726 0.021455 3.043410 4.100376 9.726327 7.433686 0.000000 0.000000 0.000000 0.663865 1.509128 -13.633692 -0.999571 0.997605 13.768187 3.704416 6.195385 4.015058 0.000000 0.000000 0.000000 3.241838 -0.501188 7.584697 -2.489535 1.133729 -2.143619 -2.111609 5.076878 11.141767 13.256210 -5.709620 -23.343804 0.000000 0.000000 0.000000 -14.782690 -20.849674 9.140249 -52.038455 -19.620787 1.710256 -6.120937 -32.978341 3.177936 0.000000 0.000000 0.000000 13.542686 16.559155 6.934896 58.261850 23.557375 5.488484 13.726693 37.142004 5.876031 0.000000 0.000000 0.000000 
-0.001474 0.941466 -0.042925 -1.949187 -13.149494 -0.355054 5.480463 -0.103920 -5.015455 -0.962747 0.097862 2.312882 5.421294 11.983629 9.363715 0.000000 0.000000 0.000000 -1.634896 1.579134 -15.534282 1.488836 0.846460 17.751363 1.884841 2.156054 3.409560 0.000000 0.000000 0.000000 3.480851 -0.554353 8.650745 -1.369101 0.587649 -2.466135 -2.123774 4.562158 11.541355 13.386125 -6.136943 -23.012808 0.000000 0.000000 0.000000 -14.849295 -22.142504 10.376296 -51.358609 -23.306558 3.207420 -2.703229 -35.486313 2.522813 0.000000 0.000000 0.000000 11.526656 17.113790 6.554294 59.534349 24.958601 6.318233 18.415450 41.386264 8.152317 0.000000 0.000000 0.000000 
-0.009590 0.941107 -0.048408 -2.346191 -16.698459 -0.064993 7.043371 0.094085 -4.383499 -1.440776 0.197554 1.621234 6.944709 14.378661 9.861513 0.000000 0.000000 0.000000 -4.063007 1.627684 -17.271568 1.783320 1.172994 20.634864 1.094685 -0.394856 4.147617 0.000000 0.000000 0.000000 3.872974 -0.559786 8.621157 -1.418386 0.615255 -1.647050 -1.620706 3.265655 11.435729 12.136709 -5.970340 -22.051682 0.000000 0.000000 0.000000 -13.410764 -21.530290 10.496977 -51.819258 -26.485092 4.797872 -0.957493 -38.186266 2.371335 0.000000 0.000000 0.000000 10.367844 18.274989 6.405577 61.051965 24.970129 6.393668 23.053946 43.330771 9.938399 0.000000 0.000000 0.000000 
